# xmcd CD database file
#
# Track frame offsets:
#	150
#	7547
#	25273
#	45691
#	68061
#	87404
#	108866
#	129991
#	141082
#	157947
#	180722
#	195922
#	217059
#
# Disc length: 3209 seconds
#
# Revision: 0
# Processed by: cddbd v1.4PL0 Copyright (c) Steve Scherf et al.
# Submitted via: CDex 1.50beta10
#
DISCID=9f0c870d
DTITLE=Kafele - Prodigal Moon
DYEAR=2003
DGENRE=Jazz
TTITLE0=Cool (intro)
TTITLE1=Indigoviolet
TTITLE2=Perfect Peace (feat. Fred Jackson)
TTITLE3=Loose Diamon
TTITLE4=Mellow Moonlight
TTITLE5=A Mourning Sunset (feat. Fred Jackson)
TTITLE6=Bad Vibes
TTITLE7=Fusion (interlude)
TTITLE8=Souldance
TTITLE9=Prodigal Moon
TTITLE10=Intrigue
TTITLE11=Sugar Didn't Work This Time
TTITLE12=Urban Folk Song
EXTD=YEAR: 2003
EXTT0=
EXTT1=
EXTT2=
EXTT3=
EXTT4=
EXTT5=
EXTT6=
EXTT7=
EXTT8=
EXTT9=
EXTT10=
EXTT11=
EXTT12=
PLAYORDER=
